<svg width="25" height="36" viewBox="0 0 25 36" fill="none" xmlns="http://www.w3.org/2000/svg">
<rect x="1.25" y="6.75" width="22.5" height="22.5" rx="11.25" stroke="black" stroke-width="1.5"/>
<path d="M11.62 21.125H13.63V23H11.62V21.125ZM9.235 15.695C9.235 15.145 9.315 14.645 9.475 14.195C9.645 13.745 9.885 13.36 10.195 13.04C10.515 12.72 10.895 12.475 11.335 12.305C11.785 12.125 12.285 12.035 12.835 12.035C13.295 12.035 13.72 12.105 14.11 12.245C14.51 12.375 14.855 12.57 15.145 12.83C15.445 13.08 15.68 13.395 15.85 13.775C16.02 14.155 16.105 14.585 16.105 15.065C16.105 15.415 16.065 15.72 15.985 15.98C15.915 16.23 15.815 16.45 15.685 16.64C15.565 16.82 15.425 16.985 15.265 17.135C15.105 17.275 14.945 17.415 14.785 17.555C14.595 17.715 14.42 17.87 14.26 18.02C14.1 18.17 13.96 18.34 13.84 18.53C13.72 18.71 13.625 18.925 13.555 19.175C13.495 19.425 13.465 19.73 13.465 20.09H11.845C11.845 19.65 11.865 19.28 11.905 18.98C11.955 18.67 12.03 18.4 12.13 18.17C12.23 17.94 12.35 17.74 12.49 17.57C12.64 17.39 12.815 17.215 13.015 17.045C13.175 16.905 13.325 16.775 13.465 16.655C13.615 16.535 13.745 16.405 13.855 16.265C13.975 16.115 14.065 15.95 14.125 15.77C14.195 15.59 14.23 15.375 14.23 15.125C14.23 14.825 14.175 14.57 14.065 14.36C13.965 14.14 13.84 13.965 13.69 13.835C13.54 13.705 13.38 13.61 13.21 13.55C13.04 13.49 12.89 13.46 12.76 13.46C12.14 13.46 11.68 13.665 11.38 14.075C11.09 14.475 10.945 15.015 10.945 15.695H9.235Z" fill="black"/>
</svg>
