<svg width="149" height="181" viewBox="0 0 149 181" fill="none" xmlns="http://www.w3.org/2000/svg">
<path d="M2 73.2917L74.5 2L147 73.2917V179H2V73.2917Z" fill="#F8F8F8" stroke="#1F252F" stroke-width="3" stroke-linecap="round" stroke-linejoin="round"/>
<path d="M32.6848 138.192C25.8626 138.192 20.332 143.631 20.332 150.339V166.634H45.0376V150.339C45.0376 143.631 39.5071 138.192 32.6848 138.192Z" fill="#1A5BFF" stroke="#1F252F" stroke-width="3" stroke-linecap="round" stroke-linejoin="round"/>
<ellipse cx="32.6848" cy="127.23" rx="12.3528" ry="12.1469" fill="#F8F8F8" stroke="#1F252F" stroke-width="3" stroke-linecap="round" stroke-linejoin="round"/>
<path d="M32.6838 115.379C31.7799 117.947 28.1645 123.378 20.9336 124.563" stroke="#1F252F" stroke-width="2.5" stroke-linecap="round" stroke-linejoin="round"/>
<path d="M32.9881 115.38C33.8919 117.947 37.5074 123.379 44.7383 124.564" stroke="#1F252F" stroke-width="2.5" stroke-linecap="round" stroke-linejoin="round"/>
<path d="M85.7219 138.192C78.8997 138.192 73.3691 143.631 73.3691 150.339V166.634H98.0747V150.339C98.0747 143.631 92.5442 138.192 85.7219 138.192Z" fill="#FFD600" stroke="#1F252F" stroke-width="3" stroke-linecap="round" stroke-linejoin="round"/>
<ellipse cx="85.7219" cy="127.23" rx="12.3528" ry="12.1469" fill="#F8F8F8" stroke="#1F252F" stroke-width="3" stroke-linecap="round" stroke-linejoin="round"/>
<path d="M81.8441 116.604C83.0376 118.737 87.8115 123.248 97.3594 124.232" stroke="#1F252F" stroke-width="2.5" stroke-linecap="round" stroke-linejoin="round"/>
<path d="M118.763 138.192C111.941 138.192 106.41 143.631 106.41 150.339V166.634H131.116V150.339C131.116 143.631 125.585 138.192 118.763 138.192Z" fill="#FFD600" stroke="#1F252F" stroke-width="3" stroke-linecap="round" stroke-linejoin="round"/>
<ellipse cx="118.763" cy="127.23" rx="12.3528" ry="12.1469" fill="#F8F8F8" stroke="#1F252F" stroke-width="3" stroke-linecap="round" stroke-linejoin="round"/>
<path d="M112.34 117.75V122.49H125.489V117.75" stroke="#1F252F" stroke-width="2.5" stroke-linecap="round" stroke-linejoin="round"/>
<line x1="147" y1="74.5" x2="2" y2="74.5" stroke="#1F252F" stroke-width="3"/>
<line x1="59.5" y1="179.895" x2="59.5" y2="75" stroke="#1F252F" stroke-width="3"/>
</svg>
