<svg width="180" height="156" viewBox="0 0 180 156" fill="none" xmlns="http://www.w3.org/2000/svg">
<mask id="path-1-outside-1" maskUnits="userSpaceOnUse" x="0" y="0.111328" width="180" height="156" fill="black">
<rect fill="white" y="0.111328" width="180" height="156"/>
<path fill-rule="evenodd" clip-rule="evenodd" d="M26.6322 150.4C25.5276 150.4 24.6322 149.504 24.6322 148.4V82.8997C24.6322 81.7951 23.7367 80.8997 22.6322 80.8997H8.00402C6.16391 80.8997 5.30028 78.6245 6.67692 77.4035L87.3499 5.85069C88.4614 4.86488 92.5087 4.86487 93.6202 5.85069L174.293 77.4035C175.67 78.6245 174.806 80.8997 172.966 80.8997H158.338C157.233 80.8997 156.338 81.7951 156.338 82.8997V148.4C156.338 149.504 155.442 150.4 154.338 150.4H90.677H90.2931H26.6322Z"/>
</mask>
<path d="M6.67692 77.4035L3.35915 73.6628L6.67692 77.4035ZM174.293 77.4035L177.611 73.6628L174.293 77.4035ZM19.6322 82.8997V148.4H29.6322V82.8997H19.6322ZM8.00402 85.8997H22.6322V75.8997H8.00402V85.8997ZM84.0322 2.11004L3.35915 73.6628L9.99468 81.1441L90.6677 9.59134L84.0322 2.11004ZM90.3024 9.59134L170.975 81.1441L177.611 73.6628L96.9379 2.11004L90.3024 9.59134ZM172.966 75.8997H158.338V85.8997H172.966V75.8997ZM151.338 82.8997V148.4H161.338V82.8997H151.338ZM154.338 145.4H90.677V155.4H154.338V145.4ZM90.677 145.4H90.2931V155.4H90.677V145.4ZM26.6322 155.4H90.2931V145.4H26.6322V155.4ZM151.338 148.4C151.338 146.743 152.681 145.4 154.338 145.4V155.4C158.204 155.4 161.338 152.266 161.338 148.4H151.338ZM158.338 75.8997C154.472 75.8997 151.338 79.0337 151.338 82.8997H161.338C161.338 84.5566 159.995 85.8997 158.338 85.8997V75.8997ZM90.6677 9.59134C90.4595 9.77599 90.2729 9.90027 90.1404 9.97878C90.0064 10.0582 89.8999 10.1073 89.8353 10.1345C89.7694 10.1623 89.727 10.1758 89.7141 10.1798C89.7004 10.184 89.7048 10.182 89.7296 10.1765C89.7822 10.1648 89.8805 10.1472 90.0222 10.1332C90.1614 10.1194 90.3191 10.1113 90.485 10.1113C90.651 10.1113 90.8087 10.1194 90.9479 10.1332C91.0896 10.1472 91.1879 10.1648 91.2405 10.1765C91.2652 10.182 91.2697 10.184 91.256 10.1798C91.2431 10.1758 91.2007 10.1623 91.1348 10.1345C91.0702 10.1073 90.9637 10.0582 90.8296 9.97877C90.6972 9.90026 90.5106 9.77598 90.3024 9.59133L96.9379 2.11005C95.7012 1.01309 94.2336 0.598166 93.4151 0.415823C92.4375 0.198012 91.4192 0.111328 90.485 0.111328C89.5509 0.111329 88.5326 0.198014 87.5549 0.415824C86.7365 0.598166 85.2689 1.01309 84.0322 2.11004L90.6677 9.59134ZM8.00402 75.8997C10.7642 75.8997 12.0596 79.3126 9.99468 81.1441L3.35915 73.6628C-1.45905 77.9363 1.56363 85.8997 8.00402 85.8997V75.8997ZM170.975 81.1441C168.91 79.3126 170.206 75.8997 172.966 75.8997V85.8997C179.406 85.8997 182.429 77.9363 177.611 73.6628L170.975 81.1441ZM19.6322 148.4C19.6322 152.266 22.7662 155.4 26.6322 155.4V145.4C28.289 145.4 29.6322 146.743 29.6322 148.4H19.6322ZM29.6322 82.8997C29.6322 79.0337 26.4982 75.8997 22.6322 75.8997V85.8997C20.9753 85.8997 19.6322 84.5566 19.6322 82.8997H29.6322Z" fill="black" mask="url(#path-1-outside-1)"/>
<rect x="68.5" y="31.8994" width="10" height="109" rx="5" fill="black" stroke="#ECF9FF" stroke-width="5"/>
<ellipse cx="47" cy="99.3994" rx="7" ry="6.99998" fill="#1A5BFF"/>
<ellipse cx="104" cy="99.3994" rx="7" ry="6.99998" fill="#1F252F"/>
<ellipse cx="130" cy="99.3994" rx="7" ry="6.99998" fill="#1F252F"/>
<path d="M37 118.399C37 112.877 41.4772 108.399 47 108.399C52.5228 108.399 57 112.877 57 118.399V134.87C57 136.819 55.4198 138.399 53.4706 138.399H40.5294C38.5802 138.399 37 136.819 37 134.87V118.399Z" fill="#1A5BFF"/>
<path d="M94 118.399C94 112.877 98.4772 108.399 104 108.399C109.523 108.399 114 112.877 114 118.399V134.87C114 136.819 112.42 138.399 110.471 138.399H97.5294C95.5802 138.399 94 136.819 94 134.87V118.399Z" fill="#1F252F"/>
<path d="M120 118.399C120 112.877 124.477 108.399 130 108.399C135.523 108.399 140 112.877 140 118.399V134.87C140 136.819 138.42 138.399 136.471 138.399H123.529C121.58 138.399 120 136.819 120 134.87V118.399Z" fill="#1F252F"/>
</svg>
