<svg width="149" height="181" viewBox="0 0 149 181" fill="none" xmlns="http://www.w3.org/2000/svg">
<path d="M2 73.2917L74.5 2L147 73.2917V179H2V73.2917Z" fill="#F8F8F8" stroke="#1F252F" stroke-width="3" stroke-linecap="round" stroke-linejoin="round"/>
<path d="M42.6848 138.192C35.8626 138.192 30.332 143.631 30.332 150.339V166.634H55.0376V150.339C55.0376 143.631 49.5071 138.192 42.6848 138.192Z" fill="#FFD600" stroke="#1F252F" stroke-width="3" stroke-linecap="round" stroke-linejoin="round"/>
<ellipse cx="42.6848" cy="127.23" rx="12.3528" ry="12.1469" fill="#F8F8F8" stroke="#1F252F" stroke-width="3" stroke-linecap="round" stroke-linejoin="round"/>
<path d="M42.6838 115.379C41.7799 117.947 38.1645 123.378 30.9336 124.563" stroke="#1F252F" stroke-width="2.5" stroke-linecap="round" stroke-linejoin="round"/>
<path d="M42.9881 115.38C43.8919 117.947 47.5074 123.379 54.7383 124.564" stroke="#1F252F" stroke-width="2.5" stroke-linecap="round" stroke-linejoin="round"/>
<path d="M75.7219 138.192C68.8997 138.192 63.3691 143.631 63.3691 150.339V166.634H88.0747V150.339C88.0747 143.631 82.5442 138.192 75.7219 138.192Z" fill="#FFD600" stroke="#1F252F" stroke-width="3" stroke-linecap="round" stroke-linejoin="round"/>
<ellipse cx="75.7219" cy="127.23" rx="12.3528" ry="12.1469" fill="#F8F8F8" stroke="#1F252F" stroke-width="3" stroke-linecap="round" stroke-linejoin="round"/>
<path d="M71.8441 116.604C73.0376 118.737 77.8115 123.248 87.3594 124.232" stroke="#1F252F" stroke-width="2.5" stroke-linecap="round" stroke-linejoin="round"/>
<path d="M108.763 138.192C101.941 138.192 96.4102 143.631 96.4102 150.339V166.634H121.116V150.339C121.116 143.631 115.585 138.192 108.763 138.192Z" fill="#FFD600" stroke="#1F252F" stroke-width="3" stroke-linecap="round" stroke-linejoin="round"/>
<ellipse cx="108.763" cy="127.23" rx="12.3528" ry="12.1469" fill="#F8F8F8" stroke="#1F252F" stroke-width="3" stroke-linecap="round" stroke-linejoin="round"/>
<path d="M102.34 117.75V122.49H115.489V117.75" stroke="#1F252F" stroke-width="2.5" stroke-linecap="round" stroke-linejoin="round"/>
<line x1="147" y1="74.5" x2="2" y2="74.5" stroke="#1F252F" stroke-width="3"/>
</svg>
