<svg width="180" height="156" viewBox="0 0 180 156" fill="none" xmlns="http://www.w3.org/2000/svg">
<mask id="path-1-outside-1" maskUnits="userSpaceOnUse" x="0" y="0" width="180" height="156" fill="black">
<rect fill="white" width="180" height="156"/>
<path fill-rule="evenodd" clip-rule="evenodd" d="M26.6322 150.288C25.5276 150.288 24.6322 149.393 24.6322 148.288V82.7884C24.6322 81.6838 23.7367 80.7884 22.6322 80.7884H8.00402C6.16391 80.7884 5.30028 78.5131 6.67692 77.2921L87.3499 5.73938C88.4614 4.75354 92.5086 4.75354 93.6201 5.73938L174.293 77.2921C175.67 78.5131 174.806 80.7884 172.966 80.7884H158.338C157.233 80.7884 156.338 81.6838 156.338 82.7884V148.288C156.338 149.393 155.442 150.288 154.338 150.288H90.677H90.293H26.6322Z"/>
</mask>
<path d="M6.67692 77.2921L3.35915 73.5515L6.67692 77.2921ZM174.293 77.2921L170.975 81.0328L174.293 77.2921ZM19.6322 82.7884V148.288H29.6322V82.7884H19.6322ZM8.00402 85.7884H22.6322V75.7884H8.00402V85.7884ZM84.0322 1.99873L3.35915 73.5515L9.99468 81.0328L90.6677 9.48003L84.0322 1.99873ZM90.3024 9.48003L170.975 81.0328L177.611 73.5515L96.9379 1.99873L90.3024 9.48003ZM172.966 75.7884H158.338V85.7884H172.966V75.7884ZM151.338 82.7884V148.288H161.338V82.7884H151.338ZM154.338 145.288H90.677V155.288H154.338V145.288ZM90.677 145.288H90.293V155.288H90.677V145.288ZM26.6322 155.288H90.293V145.288H26.6322V155.288ZM151.338 148.288C151.338 146.631 152.681 145.288 154.338 145.288V155.288C158.204 155.288 161.338 152.154 161.338 148.288H151.338ZM158.338 75.7884C154.472 75.7884 151.338 78.9224 151.338 82.7884H161.338C161.338 84.4452 159.995 85.7884 158.338 85.7884V75.7884ZM90.6677 9.48002C90.4595 9.66466 90.2729 9.78893 90.1405 9.86745C90.0064 9.94688 89.8999 9.99592 89.8354 10.0232C89.7694 10.051 89.727 10.0645 89.7141 10.0684C89.7004 10.0726 89.7049 10.0707 89.7296 10.0652C89.7823 10.0534 89.8805 10.0359 90.0222 10.0219C90.1614 10.0081 90.3191 10 90.485 10C90.651 10 90.8087 10.0081 90.9479 10.0219C91.0895 10.0359 91.1878 10.0534 91.2405 10.0652C91.2652 10.0707 91.2696 10.0726 91.2559 10.0684C91.243 10.0645 91.2006 10.051 91.1347 10.0232C91.0701 9.99592 90.9636 9.94688 90.8296 9.86745C90.6971 9.78893 90.5105 9.66466 90.3024 9.48002L96.9379 1.99873C95.7011 0.901787 94.2336 0.486856 93.4151 0.304504C92.4375 0.0866876 91.4192 0 90.485 0C89.5509 0 88.5326 0.0866876 87.5549 0.304504C86.7365 0.486856 85.2689 0.901787 84.0322 1.99873L90.6677 9.48002ZM8.00402 75.7884C10.7642 75.7884 12.0596 79.2013 9.99468 81.0328L3.35915 73.5515C-1.45906 77.825 1.56364 85.7884 8.00402 85.7884V75.7884ZM170.975 81.0328C168.91 79.2013 170.206 75.7884 172.966 75.7884V85.7884C179.406 85.7884 182.429 77.825 177.611 73.5515L170.975 81.0328ZM19.6322 148.288C19.6322 152.154 22.7662 155.288 26.6322 155.288V145.288C28.289 145.288 29.6322 146.631 29.6322 148.288H19.6322ZM29.6322 82.7884C29.6322 78.9224 26.4982 75.7884 22.6322 75.7884V85.7884C20.9753 85.7884 19.6322 84.4452 19.6322 82.7884H29.6322Z" fill="black" mask="url(#path-1-outside-1)"/>
<ellipse cx="61" cy="101.399" rx="7" ry="6.99998" fill="#1A5BFF"/>
<ellipse cx="90" cy="101.399" rx="7" ry="6.99998" fill="#1A5BFF"/>
<ellipse cx="119" cy="101.399" rx="7" ry="6.99998" fill="#1A5BFF"/>
<path d="M51 120.399C51 114.877 55.4772 110.399 61 110.399C66.5228 110.399 71 114.877 71 120.399V136.87C71 138.819 69.4198 140.399 67.4706 140.399H54.5294C52.5802 140.399 51 138.819 51 136.87V120.399Z" fill="#1A5BFF"/>
<path d="M80 120.399C80 114.877 84.4772 110.399 90 110.399C95.5228 110.399 100 114.877 100 120.399V136.87C100 138.819 98.4198 140.399 96.4706 140.399H83.5294C81.5802 140.399 80 138.819 80 136.87V120.399Z" fill="#1A5BFF"/>
<path d="M109 120.399C109 114.877 113.477 110.399 119 110.399C124.523 110.399 129 114.877 129 120.399V136.87C129 138.819 127.42 140.399 125.471 140.399H112.529C110.58 140.399 109 138.819 109 136.87V120.399Z" fill="#1A5BFF"/>
</svg>
