<svg width="750" height="390" viewBox="0 0 750 390" fill="none" xmlns="http://www.w3.org/2000/svg">
<g filter="url(#filter0_d)">
<rect x="20" y="16" width="710" height="350" rx="10" fill="white"/>
<line x1="93" y1="94.5" x2="655" y2="94.5" stroke="#E0E0E0"/>
<line x1="93" y1="190.5" x2="655" y2="190.5" stroke="#E0E0E0"/>
<line x1="93" y1="286.5" x2="655" y2="286.5" stroke="#E0E0E0"/>
<path d="M101.82 146.44V135.72H99.92V146.16C99.92 146.947 99.7533 147.573 99.42 148.04C99.1 148.507 98.5067 148.74 97.64 148.74C97.1733 148.74 96.7867 148.673 96.48 148.54C96.1867 148.393 95.9533 148.193 95.78 147.94C95.62 147.687 95.5067 147.387 95.44 147.04C95.3733 146.693 95.34 146.313 95.34 145.9V145.3H93.44V146.18C93.44 147.54 93.8 148.573 94.52 149.28C95.24 149.973 96.2667 150.32 97.6 150.32C98.4 150.32 99.0667 150.213 99.6 150C100.147 149.773 100.58 149.48 100.9 149.12C101.233 148.747 101.467 148.327 101.6 147.86C101.747 147.393 101.82 146.92 101.82 146.44ZM113.811 149.96C113.518 150.133 113.111 150.22 112.591 150.22C112.151 150.22 111.798 150.1 111.531 149.86C111.278 149.607 111.151 149.2 111.151 148.64C110.684 149.2 110.138 149.607 109.511 149.86C108.898 150.1 108.231 150.22 107.511 150.22C107.044 150.22 106.598 150.167 106.171 150.06C105.758 149.953 105.398 149.787 105.091 149.56C104.784 149.333 104.538 149.04 104.351 148.68C104.178 148.307 104.091 147.86 104.091 147.34C104.091 146.753 104.191 146.273 104.391 145.9C104.591 145.527 104.851 145.227 105.171 145C105.504 144.76 105.878 144.58 106.291 144.46C106.718 144.34 107.151 144.24 107.591 144.16C108.058 144.067 108.498 144 108.911 143.96C109.338 143.907 109.711 143.84 110.031 143.76C110.351 143.667 110.604 143.54 110.791 143.38C110.978 143.207 111.071 142.96 111.071 142.64C111.071 142.267 110.998 141.967 110.851 141.74C110.718 141.513 110.538 141.34 110.311 141.22C110.098 141.1 109.851 141.02 109.571 140.98C109.304 140.94 109.038 140.92 108.771 140.92C108.051 140.92 107.451 141.06 106.971 141.34C106.491 141.607 106.231 142.12 106.191 142.88H104.491C104.518 142.24 104.651 141.7 104.891 141.26C105.131 140.82 105.451 140.467 105.851 140.2C106.251 139.92 106.704 139.72 107.211 139.6C107.731 139.48 108.284 139.42 108.871 139.42C109.338 139.42 109.798 139.453 110.251 139.52C110.718 139.587 111.138 139.727 111.511 139.94C111.884 140.14 112.184 140.427 112.411 140.8C112.638 141.173 112.751 141.66 112.751 142.26V147.58C112.751 147.98 112.771 148.273 112.811 148.46C112.864 148.647 113.024 148.74 113.291 148.74C113.438 148.74 113.611 148.707 113.811 148.64V149.96ZM111.051 144.66C110.838 144.82 110.558 144.94 110.211 145.02C109.864 145.087 109.498 145.147 109.111 145.2C108.738 145.24 108.358 145.293 107.971 145.36C107.584 145.413 107.238 145.507 106.931 145.64C106.624 145.773 106.371 145.967 106.171 146.22C105.984 146.46 105.891 146.793 105.891 147.22C105.891 147.5 105.944 147.74 106.051 147.94C106.171 148.127 106.318 148.28 106.491 148.4C106.678 148.52 106.891 148.607 107.131 148.66C107.371 148.713 107.624 148.74 107.891 148.74C108.451 148.74 108.931 148.667 109.331 148.52C109.731 148.36 110.058 148.167 110.311 147.94C110.564 147.7 110.751 147.447 110.871 147.18C110.991 146.9 111.051 146.64 111.051 146.4V144.66ZM115.393 139.66V150H117.093V144.16C117.093 143.693 117.153 143.267 117.273 142.88C117.407 142.48 117.6 142.133 117.853 141.84C118.107 141.547 118.42 141.32 118.793 141.16C119.18 141 119.633 140.92 120.153 140.92C120.807 140.92 121.32 141.107 121.693 141.48C122.067 141.853 122.253 142.36 122.253 143V150H123.953V143.2C123.953 142.64 123.893 142.133 123.773 141.68C123.667 141.213 123.473 140.813 123.193 140.48C122.913 140.147 122.547 139.887 122.093 139.7C121.64 139.513 121.073 139.42 120.393 139.42C118.86 139.42 117.74 140.047 117.033 141.3H116.993V139.66H115.393ZM128.307 137.8V135.72H126.607V137.8H128.307ZM126.607 139.66V150H128.307V139.66H126.607ZM137.96 142.98H139.72C139.653 142.367 139.493 141.84 139.24 141.4C138.987 140.947 138.66 140.573 138.26 140.28C137.873 139.987 137.42 139.773 136.9 139.64C136.393 139.493 135.847 139.42 135.26 139.42C134.447 139.42 133.733 139.567 133.12 139.86C132.507 140.14 131.993 140.533 131.58 141.04C131.18 141.533 130.88 142.12 130.68 142.8C130.48 143.467 130.38 144.187 130.38 144.96C130.38 145.733 130.48 146.447 130.68 147.1C130.893 147.74 131.2 148.293 131.6 148.76C132.013 149.227 132.52 149.587 133.12 149.84C133.733 150.093 134.433 150.22 135.22 150.22C136.54 150.22 137.58 149.873 138.34 149.18C139.113 148.487 139.593 147.5 139.78 146.22H138.04C137.933 147.02 137.64 147.64 137.16 148.08C136.693 148.52 136.04 148.74 135.2 148.74C134.667 148.74 134.207 148.633 133.82 148.42C133.433 148.207 133.12 147.927 132.88 147.58C132.64 147.22 132.46 146.813 132.34 146.36C132.233 145.907 132.18 145.44 132.18 144.96C132.18 144.44 132.233 143.94 132.34 143.46C132.447 142.967 132.62 142.533 132.86 142.16C133.113 141.787 133.447 141.487 133.86 141.26C134.273 141.033 134.787 140.92 135.4 140.92C136.12 140.92 136.693 141.1 137.12 141.46C137.547 141.82 137.827 142.327 137.96 142.98ZM148.862 143.84H142.922C142.949 143.44 143.036 143.067 143.182 142.72C143.329 142.36 143.529 142.047 143.782 141.78C144.036 141.513 144.336 141.307 144.682 141.16C145.042 141 145.442 140.92 145.882 140.92C146.309 140.92 146.696 141 147.042 141.16C147.402 141.307 147.709 141.513 147.962 141.78C148.229 142.033 148.436 142.34 148.582 142.7C148.742 143.06 148.836 143.44 148.862 143.84ZM150.502 146.72H148.822C148.676 147.4 148.369 147.907 147.902 148.24C147.449 148.573 146.862 148.74 146.142 148.74C145.582 148.74 145.096 148.647 144.682 148.46C144.269 148.273 143.929 148.027 143.662 147.72C143.396 147.4 143.202 147.04 143.082 146.64C142.962 146.227 142.909 145.793 142.922 145.34H150.662C150.689 144.713 150.629 144.053 150.482 143.36C150.349 142.667 150.096 142.027 149.722 141.44C149.362 140.853 148.876 140.373 148.262 140C147.662 139.613 146.902 139.42 145.982 139.42C145.276 139.42 144.622 139.553 144.022 139.82C143.436 140.087 142.922 140.46 142.482 140.94C142.056 141.42 141.722 141.987 141.482 142.64C141.242 143.293 141.122 144.013 141.122 144.8C141.149 145.587 141.262 146.313 141.462 146.98C141.676 147.647 141.989 148.22 142.402 148.7C142.816 149.18 143.322 149.553 143.922 149.82C144.536 150.087 145.256 150.22 146.082 150.22C147.256 150.22 148.229 149.927 149.002 149.34C149.776 148.753 150.276 147.88 150.502 146.72ZM159.031 146.74H157.331C157.358 147.38 157.491 147.927 157.731 148.38C157.971 148.82 158.291 149.18 158.691 149.46C159.091 149.727 159.551 149.92 160.071 150.04C160.591 150.16 161.138 150.22 161.711 150.22C162.231 150.22 162.751 150.167 163.271 150.06C163.804 149.967 164.278 149.793 164.691 149.54C165.118 149.287 165.458 148.953 165.711 148.54C165.978 148.127 166.111 147.607 166.111 146.98C166.111 146.487 166.011 146.073 165.811 145.74C165.624 145.407 165.371 145.133 165.051 144.92C164.744 144.693 164.384 144.513 163.971 144.38C163.571 144.247 163.158 144.133 162.731 144.04C162.331 143.947 161.931 143.86 161.531 143.78C161.131 143.687 160.771 143.58 160.451 143.46C160.131 143.327 159.864 143.167 159.651 142.98C159.451 142.78 159.351 142.533 159.351 142.24C159.351 141.973 159.418 141.76 159.551 141.6C159.684 141.427 159.858 141.293 160.071 141.2C160.284 141.093 160.518 141.02 160.771 140.98C161.038 140.94 161.298 140.92 161.551 140.92C161.831 140.92 162.104 140.953 162.371 141.02C162.651 141.073 162.904 141.167 163.131 141.3C163.358 141.433 163.544 141.613 163.691 141.84C163.838 142.053 163.924 142.327 163.951 142.66H165.651C165.611 142.033 165.478 141.513 165.251 141.1C165.024 140.673 164.718 140.34 164.331 140.1C163.958 139.847 163.524 139.673 163.031 139.58C162.538 139.473 161.998 139.42 161.411 139.42C160.958 139.42 160.498 139.48 160.031 139.6C159.578 139.707 159.164 139.88 158.791 140.12C158.431 140.347 158.131 140.647 157.891 141.02C157.664 141.393 157.551 141.84 157.551 142.36C157.551 143.027 157.718 143.547 158.051 143.92C158.384 144.293 158.798 144.587 159.291 144.8C159.798 145 160.344 145.16 160.931 145.28C161.518 145.387 162.058 145.513 162.551 145.66C163.058 145.793 163.478 145.973 163.811 146.2C164.144 146.427 164.311 146.76 164.311 147.2C164.311 147.52 164.231 147.787 164.071 148C163.911 148.2 163.704 148.353 163.451 148.46C163.211 148.567 162.944 148.64 162.651 148.68C162.358 148.72 162.078 148.74 161.811 148.74C161.464 148.74 161.124 148.707 160.791 148.64C160.471 148.573 160.178 148.467 159.911 148.32C159.658 148.16 159.451 147.953 159.291 147.7C159.131 147.433 159.044 147.113 159.031 146.74ZM167.991 135.72V150H169.691V144.16C169.691 143.693 169.751 143.267 169.871 142.88C170.004 142.48 170.198 142.133 170.451 141.84C170.704 141.547 171.018 141.32 171.391 141.16C171.778 141 172.231 140.92 172.751 140.92C173.404 140.92 173.918 141.107 174.291 141.48C174.664 141.853 174.851 142.36 174.851 143V150H176.551V143.2C176.551 142.64 176.491 142.133 176.371 141.68C176.264 141.213 176.071 140.813 175.791 140.48C175.511 140.147 175.144 139.887 174.691 139.7C174.238 139.513 173.671 139.42 172.991 139.42C172.684 139.42 172.364 139.453 172.031 139.52C171.711 139.587 171.398 139.693 171.091 139.84C170.798 139.973 170.531 140.153 170.291 140.38C170.051 140.593 169.864 140.86 169.731 141.18H169.691V135.72H167.991ZM180.344 144.84C180.344 144.213 180.424 143.66 180.584 143.18C180.758 142.687 180.991 142.273 181.284 141.94C181.578 141.607 181.918 141.353 182.304 141.18C182.704 141.007 183.124 140.92 183.564 140.92C184.004 140.92 184.418 141.007 184.804 141.18C185.204 141.353 185.551 141.607 185.844 141.94C186.138 142.273 186.364 142.687 186.524 143.18C186.698 143.66 186.784 144.213 186.784 144.84C186.784 145.467 186.698 146.027 186.524 146.52C186.364 147 186.138 147.407 185.844 147.74C185.551 148.06 185.204 148.307 184.804 148.48C184.418 148.653 184.004 148.74 183.564 148.74C183.124 148.74 182.704 148.653 182.304 148.48C181.918 148.307 181.578 148.06 181.284 147.74C180.991 147.407 180.758 147 180.584 146.52C180.424 146.027 180.344 145.467 180.344 144.84ZM178.544 144.84C178.544 145.6 178.651 146.307 178.864 146.96C179.078 147.613 179.398 148.187 179.824 148.68C180.251 149.16 180.778 149.54 181.404 149.82C182.031 150.087 182.751 150.22 183.564 150.22C184.391 150.22 185.111 150.087 185.724 149.82C186.351 149.54 186.878 149.16 187.304 148.68C187.731 148.187 188.051 147.613 188.264 146.96C188.478 146.307 188.584 145.6 188.584 144.84C188.584 144.08 188.478 143.373 188.264 142.72C188.051 142.053 187.731 141.48 187.304 141C186.878 140.507 186.351 140.12 185.724 139.84C185.111 139.56 184.391 139.42 183.564 139.42C182.751 139.42 182.031 139.56 181.404 139.84C180.778 140.12 180.251 140.507 179.824 141C179.398 141.48 179.078 142.053 178.864 142.72C178.651 143.373 178.544 144.08 178.544 144.84ZM199.149 150V139.66H197.449V145.5C197.449 145.967 197.382 146.4 197.249 146.8C197.129 147.187 196.942 147.527 196.689 147.82C196.435 148.113 196.115 148.34 195.729 148.5C195.355 148.66 194.909 148.74 194.389 148.74C193.735 148.74 193.222 148.553 192.849 148.18C192.475 147.807 192.289 147.3 192.289 146.66V139.66H190.589V146.46C190.589 147.02 190.642 147.533 190.749 148C190.869 148.453 191.069 148.847 191.349 149.18C191.629 149.513 191.995 149.773 192.449 149.96C192.902 150.133 193.469 150.22 194.149 150.22C194.909 150.22 195.569 150.073 196.129 149.78C196.689 149.473 197.149 149 197.509 148.36H197.549V150H199.149ZM201.802 135.72V150H203.502V135.72H201.802ZM207.375 144.92C207.375 144.413 207.429 143.92 207.535 143.44C207.642 142.96 207.815 142.533 208.055 142.16C208.295 141.787 208.615 141.487 209.015 141.26C209.415 141.033 209.902 140.92 210.475 140.92C211.062 140.92 211.562 141.033 211.975 141.26C212.389 141.473 212.722 141.76 212.975 142.12C213.242 142.48 213.435 142.9 213.555 143.38C213.675 143.847 213.735 144.333 213.735 144.84C213.735 145.32 213.675 145.793 213.555 146.26C213.449 146.727 213.269 147.147 213.015 147.52C212.762 147.88 212.435 148.173 212.035 148.4C211.635 148.627 211.149 148.74 210.575 148.74C210.029 148.74 209.549 148.633 209.135 148.42C208.735 148.207 208.402 147.92 208.135 147.56C207.882 147.2 207.689 146.793 207.555 146.34C207.435 145.873 207.375 145.4 207.375 144.92ZM215.375 150V135.72H213.675V141.04H213.635C213.449 140.733 213.215 140.48 212.935 140.28C212.669 140.067 212.382 139.9 212.075 139.78C211.769 139.647 211.462 139.553 211.155 139.5C210.849 139.447 210.562 139.42 210.295 139.42C209.509 139.42 208.815 139.567 208.215 139.86C207.629 140.14 207.135 140.527 206.735 141.02C206.349 141.5 206.055 142.067 205.855 142.72C205.669 143.373 205.575 144.067 205.575 144.8C205.575 145.533 205.675 146.227 205.875 146.88C206.075 147.533 206.369 148.107 206.755 148.6C207.155 149.093 207.649 149.487 208.235 149.78C208.835 150.073 209.535 150.22 210.335 150.22C211.055 150.22 211.715 150.093 212.315 149.84C212.915 149.587 213.355 149.173 213.635 148.6H213.675V150H215.375ZM224.797 144.92C224.797 144.413 224.851 143.92 224.957 143.44C225.064 142.96 225.237 142.533 225.477 142.16C225.717 141.787 226.037 141.487 226.437 141.26C226.837 141.033 227.324 140.92 227.897 140.92C228.484 140.92 228.984 141.033 229.397 141.26C229.811 141.473 230.144 141.76 230.397 142.12C230.664 142.48 230.857 142.9 230.977 143.38C231.097 143.847 231.157 144.333 231.157 144.84C231.157 145.32 231.097 145.793 230.977 146.26C230.871 146.727 230.691 147.147 230.437 147.52C230.184 147.88 229.857 148.173 229.457 148.4C229.057 148.627 228.571 148.74 227.997 148.74C227.451 148.74 226.971 148.633 226.557 148.42C226.157 148.207 225.824 147.92 225.557 147.56C225.304 147.2 225.111 146.793 224.977 146.34C224.857 145.873 224.797 145.4 224.797 144.92ZM232.797 153.94V139.66H231.097V141.04H231.057C230.871 140.733 230.637 140.48 230.357 140.28C230.091 140.067 229.804 139.9 229.497 139.78C229.191 139.647 228.884 139.553 228.577 139.5C228.271 139.447 227.984 139.42 227.717 139.42C226.931 139.42 226.237 139.567 225.637 139.86C225.051 140.14 224.557 140.527 224.157 141.02C223.771 141.5 223.477 142.067 223.277 142.72C223.091 143.373 222.997 144.067 222.997 144.8C222.997 145.533 223.097 146.227 223.297 146.88C223.497 147.533 223.791 148.107 224.177 148.6C224.577 149.093 225.071 149.487 225.657 149.78C226.257 150.073 226.957 150.22 227.757 150.22C228.477 150.22 229.137 150.093 229.737 149.84C230.337 149.587 230.777 149.173 231.057 148.6H231.097V153.94H232.797ZM243.973 150V139.66H242.273V145.5C242.273 145.967 242.206 146.4 242.073 146.8C241.953 147.187 241.766 147.527 241.513 147.82C241.259 148.113 240.939 148.34 240.553 148.5C240.179 148.66 239.733 148.74 239.213 148.74C238.559 148.74 238.046 148.553 237.673 148.18C237.299 147.807 237.113 147.3 237.113 146.66V139.66H235.413V146.46C235.413 147.02 235.466 147.533 235.573 148C235.693 148.453 235.893 148.847 236.173 149.18C236.453 149.513 236.819 149.773 237.273 149.96C237.726 150.133 238.293 150.22 238.973 150.22C239.733 150.22 240.393 150.073 240.953 149.78C241.513 149.473 241.973 149 242.333 148.36H242.373V150H243.973ZM255.686 149.96C255.393 150.133 254.986 150.22 254.466 150.22C254.026 150.22 253.673 150.1 253.406 149.86C253.153 149.607 253.026 149.2 253.026 148.64C252.559 149.2 252.013 149.607 251.386 149.86C250.773 150.1 250.106 150.22 249.386 150.22C248.919 150.22 248.473 150.167 248.046 150.06C247.633 149.953 247.273 149.787 246.966 149.56C246.659 149.333 246.413 149.04 246.226 148.68C246.053 148.307 245.966 147.86 245.966 147.34C245.966 146.753 246.066 146.273 246.266 145.9C246.466 145.527 246.726 145.227 247.046 145C247.379 144.76 247.753 144.58 248.166 144.46C248.593 144.34 249.026 144.24 249.466 144.16C249.933 144.067 250.373 144 250.786 143.96C251.213 143.907 251.586 143.84 251.906 143.76C252.226 143.667 252.479 143.54 252.666 143.38C252.853 143.207 252.946 142.96 252.946 142.64C252.946 142.267 252.873 141.967 252.726 141.74C252.593 141.513 252.413 141.34 252.186 141.22C251.973 141.1 251.726 141.02 251.446 140.98C251.179 140.94 250.913 140.92 250.646 140.92C249.926 140.92 249.326 141.06 248.846 141.34C248.366 141.607 248.106 142.12 248.066 142.88H246.366C246.393 142.24 246.526 141.7 246.766 141.26C247.006 140.82 247.326 140.467 247.726 140.2C248.126 139.92 248.579 139.72 249.086 139.6C249.606 139.48 250.159 139.42 250.746 139.42C251.213 139.42 251.673 139.453 252.126 139.52C252.593 139.587 253.013 139.727 253.386 139.94C253.759 140.14 254.059 140.427 254.286 140.8C254.513 141.173 254.626 141.66 254.626 142.26V147.58C254.626 147.98 254.646 148.273 254.686 148.46C254.739 148.647 254.899 148.74 255.166 148.74C255.313 148.74 255.486 148.707 255.686 148.64V149.96ZM252.926 144.66C252.713 144.82 252.433 144.94 252.086 145.02C251.739 145.087 251.373 145.147 250.986 145.2C250.613 145.24 250.233 145.293 249.846 145.36C249.459 145.413 249.113 145.507 248.806 145.64C248.499 145.773 248.246 145.967 248.046 146.22C247.859 146.46 247.766 146.793 247.766 147.22C247.766 147.5 247.819 147.74 247.926 147.94C248.046 148.127 248.193 148.28 248.366 148.4C248.553 148.52 248.766 148.607 249.006 148.66C249.246 148.713 249.499 148.74 249.766 148.74C250.326 148.74 250.806 148.667 251.206 148.52C251.606 148.36 251.933 148.167 252.186 147.94C252.439 147.7 252.626 147.447 252.746 147.18C252.866 146.9 252.926 146.64 252.926 146.4V144.66ZM257.208 139.66V150H258.908V145.4C258.908 144.733 258.975 144.147 259.108 143.64C259.242 143.12 259.455 142.68 259.748 142.32C260.042 141.96 260.428 141.687 260.908 141.5C261.388 141.313 261.968 141.22 262.648 141.22V139.42C261.728 139.393 260.968 139.58 260.368 139.98C259.768 140.38 259.262 141 258.848 141.84H258.808V139.66H257.208ZM273.088 149.96C272.795 150.133 272.388 150.22 271.868 150.22C271.428 150.22 271.075 150.1 270.808 149.86C270.555 149.607 270.428 149.2 270.428 148.64C269.962 149.2 269.415 149.607 268.788 149.86C268.175 150.1 267.508 150.22 266.788 150.22C266.322 150.22 265.875 150.167 265.448 150.06C265.035 149.953 264.675 149.787 264.368 149.56C264.062 149.333 263.815 149.04 263.628 148.68C263.455 148.307 263.368 147.86 263.368 147.34C263.368 146.753 263.468 146.273 263.668 145.9C263.868 145.527 264.128 145.227 264.448 145C264.782 144.76 265.155 144.58 265.568 144.46C265.995 144.34 266.428 144.24 266.868 144.16C267.335 144.067 267.775 144 268.188 143.96C268.615 143.907 268.988 143.84 269.308 143.76C269.628 143.667 269.882 143.54 270.068 143.38C270.255 143.207 270.348 142.96 270.348 142.64C270.348 142.267 270.275 141.967 270.128 141.74C269.995 141.513 269.815 141.34 269.588 141.22C269.375 141.1 269.128 141.02 268.848 140.98C268.582 140.94 268.315 140.92 268.048 140.92C267.328 140.92 266.728 141.06 266.248 141.34C265.768 141.607 265.508 142.12 265.468 142.88H263.768C263.795 142.24 263.928 141.7 264.168 141.26C264.408 140.82 264.728 140.467 265.128 140.2C265.528 139.92 265.982 139.72 266.488 139.6C267.008 139.48 267.562 139.42 268.148 139.42C268.615 139.42 269.075 139.453 269.528 139.52C269.995 139.587 270.415 139.727 270.788 139.94C271.162 140.14 271.462 140.427 271.688 140.8C271.915 141.173 272.028 141.66 272.028 142.26V147.58C272.028 147.98 272.048 148.273 272.088 148.46C272.142 148.647 272.302 148.74 272.568 148.74C272.715 148.74 272.888 148.707 273.088 148.64V149.96ZM270.328 144.66C270.115 144.82 269.835 144.94 269.488 145.02C269.142 145.087 268.775 145.147 268.388 145.2C268.015 145.24 267.635 145.293 267.248 145.36C266.862 145.413 266.515 145.507 266.208 145.64C265.902 145.773 265.648 145.967 265.448 146.22C265.262 146.46 265.168 146.793 265.168 147.22C265.168 147.5 265.222 147.74 265.328 147.94C265.448 148.127 265.595 148.28 265.768 148.4C265.955 148.52 266.168 148.607 266.408 148.66C266.648 148.713 266.902 148.74 267.168 148.74C267.728 148.74 268.208 148.667 268.608 148.52C269.008 148.36 269.335 148.167 269.588 147.94C269.842 147.7 270.028 147.447 270.148 147.18C270.268 146.9 270.328 146.64 270.328 146.4V144.66ZM274.671 139.66V150H276.371V144.16C276.371 143.693 276.431 143.267 276.551 142.88C276.684 142.48 276.877 142.133 277.131 141.84C277.384 141.547 277.697 141.32 278.071 141.16C278.457 141 278.911 140.92 279.431 140.92C280.084 140.92 280.597 141.107 280.971 141.48C281.344 141.853 281.531 142.36 281.531 143V150H283.231V143.2C283.231 142.64 283.171 142.133 283.051 141.68C282.944 141.213 282.751 140.813 282.471 140.48C282.191 140.147 281.824 139.887 281.371 139.7C280.917 139.513 280.351 139.42 279.671 139.42C278.137 139.42 277.017 140.047 276.311 141.3H276.271V139.66H274.671ZM288.144 139.66V136.56H286.444V139.66H284.684V141.16H286.444V147.74C286.444 148.22 286.491 148.607 286.584 148.9C286.677 149.193 286.817 149.42 287.004 149.58C287.204 149.74 287.457 149.853 287.764 149.92C288.084 149.973 288.464 150 288.904 150H290.204V148.5H289.424C289.157 148.5 288.937 148.493 288.764 148.48C288.604 148.453 288.477 148.407 288.384 148.34C288.291 148.273 288.224 148.18 288.184 148.06C288.157 147.94 288.144 147.78 288.144 147.58V141.16H290.204V139.66H288.144ZM293.893 137.8V135.72H292.193V137.8H293.893ZM292.193 139.66V150H293.893V139.66H292.193ZM296.526 139.66V150H298.226V144.16C298.226 143.693 298.286 143.267 298.406 142.88C298.539 142.48 298.733 142.133 298.986 141.84C299.239 141.547 299.553 141.32 299.926 141.16C300.313 141 300.766 140.92 301.286 140.92C301.939 140.92 302.453 141.107 302.826 141.48C303.199 141.853 303.386 142.36 303.386 143V150H305.086V143.2C305.086 142.64 305.026 142.133 304.906 141.68C304.799 141.213 304.606 140.813 304.326 140.48C304.046 140.147 303.679 139.887 303.226 139.7C302.773 139.513 302.206 139.42 301.526 139.42C299.993 139.42 298.873 140.047 298.166 141.3H298.126V139.66H296.526ZM314.819 143.84H308.879C308.906 143.44 308.993 143.067 309.139 142.72C309.286 142.36 309.486 142.047 309.739 141.78C309.993 141.513 310.293 141.307 310.639 141.16C310.999 141 311.399 140.92 311.839 140.92C312.266 140.92 312.653 141 312.999 141.16C313.359 141.307 313.666 141.513 313.919 141.78C314.186 142.033 314.393 142.34 314.539 142.7C314.699 143.06 314.793 143.44 314.819 143.84ZM316.459 146.72H314.779C314.633 147.4 314.326 147.907 313.859 148.24C313.406 148.573 312.819 148.74 312.099 148.74C311.539 148.74 311.053 148.647 310.639 148.46C310.226 148.273 309.886 148.027 309.619 147.72C309.353 147.4 309.159 147.04 309.039 146.64C308.919 146.227 308.866 145.793 308.879 145.34H316.619C316.646 144.713 316.586 144.053 316.439 143.36C316.306 142.667 316.053 142.027 315.679 141.44C315.319 140.853 314.833 140.373 314.219 140C313.619 139.613 312.859 139.42 311.939 139.42C311.233 139.42 310.579 139.553 309.979 139.82C309.393 140.087 308.879 140.46 308.439 140.94C308.013 141.42 307.679 141.987 307.439 142.64C307.199 143.293 307.079 144.013 307.079 144.8C307.106 145.587 307.219 146.313 307.419 146.98C307.633 147.647 307.946 148.22 308.359 148.7C308.773 149.18 309.279 149.553 309.879 149.82C310.493 150.087 311.213 150.22 312.039 150.22C313.213 150.22 314.186 149.927 314.959 149.34C315.733 148.753 316.233 147.88 316.459 146.72ZM332.508 150V139.66H330.808V145.5C330.808 145.967 330.741 146.4 330.608 146.8C330.488 147.187 330.301 147.527 330.048 147.82C329.795 148.113 329.475 148.34 329.088 148.5C328.715 148.66 328.268 148.74 327.748 148.74C327.095 148.74 326.581 148.553 326.208 148.18C325.835 147.807 325.648 147.3 325.648 146.66V139.66H323.948V146.46C323.948 147.02 324.001 147.533 324.108 148C324.228 148.453 324.428 148.847 324.708 149.18C324.988 149.513 325.355 149.773 325.808 149.96C326.261 150.133 326.828 150.22 327.508 150.22C328.268 150.22 328.928 150.073 329.488 149.78C330.048 149.473 330.508 149 330.868 148.36H330.908V150H332.508ZM335.061 139.66V150H336.761V144.16C336.761 143.693 336.821 143.267 336.941 142.88C337.075 142.48 337.268 142.133 337.521 141.84C337.775 141.547 338.088 141.32 338.461 141.16C338.848 141 339.301 140.92 339.821 140.92C340.475 140.92 340.988 141.107 341.361 141.48C341.735 141.853 341.921 142.36 341.921 143V150H343.621V143.2C343.621 142.64 343.561 142.133 343.441 141.68C343.335 141.213 343.141 140.813 342.861 140.48C342.581 140.147 342.215 139.887 341.761 139.7C341.308 139.513 340.741 139.42 340.061 139.42C338.528 139.42 337.408 140.047 336.701 141.3H336.661V139.66H335.061ZM348.535 139.66V136.56H346.835V139.66H345.075V141.16H346.835V147.74C346.835 148.22 346.881 148.607 346.975 148.9C347.068 149.193 347.208 149.42 347.395 149.58C347.595 149.74 347.848 149.853 348.155 149.92C348.475 149.973 348.855 150 349.295 150H350.595V148.5H349.815C349.548 148.5 349.328 148.493 349.155 148.48C348.995 148.453 348.868 148.407 348.775 148.34C348.681 148.273 348.615 148.18 348.575 148.06C348.548 147.94 348.535 147.78 348.535 147.58V141.16H350.595V139.66H348.535ZM354.283 137.8V135.72H352.583V137.8H354.283ZM352.583 139.66V150H354.283V139.66H352.583ZM357.017 135.72V150H358.717V135.72H357.017ZM369.657 144.1L372.077 137.44H372.117L374.497 144.1H369.657ZM371.077 135.72L365.517 150H367.457L369.057 145.7H375.097L376.657 150H378.757L373.177 135.72H371.077ZM379.945 139.66V153.94H381.645V148.62H381.685C381.872 148.927 382.099 149.187 382.365 149.4C382.645 149.6 382.939 149.76 383.245 149.88C383.552 150 383.859 150.087 384.165 150.14C384.485 150.193 384.772 150.22 385.025 150.22C385.812 150.22 386.499 150.08 387.085 149.8C387.685 149.52 388.179 149.14 388.565 148.66C388.965 148.167 389.259 147.593 389.445 146.94C389.645 146.287 389.745 145.593 389.745 144.86C389.745 144.127 389.645 143.433 389.445 142.78C389.245 142.127 388.945 141.553 388.545 141.06C388.159 140.553 387.665 140.153 387.065 139.86C386.479 139.567 385.785 139.42 384.985 139.42C384.265 139.42 383.605 139.553 383.005 139.82C382.405 140.073 381.965 140.487 381.685 141.06H381.645V139.66H379.945ZM387.945 144.74C387.945 145.247 387.892 145.74 387.785 146.22C387.679 146.7 387.505 147.127 387.265 147.5C387.025 147.873 386.705 148.173 386.305 148.4C385.919 148.627 385.432 148.74 384.845 148.74C384.259 148.74 383.759 148.633 383.345 148.42C382.932 148.193 382.592 147.9 382.325 147.54C382.072 147.18 381.885 146.767 381.765 146.3C381.645 145.82 381.585 145.327 381.585 144.82C381.585 144.34 381.639 143.867 381.745 143.4C381.865 142.933 382.052 142.52 382.305 142.16C382.559 141.787 382.885 141.487 383.285 141.26C383.685 141.033 384.172 140.92 384.745 140.92C385.292 140.92 385.765 141.027 386.165 141.24C386.579 141.453 386.912 141.74 387.165 142.1C387.432 142.46 387.625 142.873 387.745 143.34C387.879 143.793 387.945 144.26 387.945 144.74ZM391.681 139.66V150H393.381V145.4C393.381 144.733 393.448 144.147 393.581 143.64C393.714 143.12 393.928 142.68 394.221 142.32C394.514 141.96 394.901 141.687 395.381 141.5C395.861 141.313 396.441 141.22 397.121 141.22V139.42C396.201 139.393 395.441 139.58 394.841 139.98C394.241 140.38 393.734 141 393.321 141.84H393.281V139.66H391.681ZM400.201 137.8V135.72H398.501V137.8H400.201ZM398.501 139.66V150H400.201V139.66H398.501ZM402.935 135.72V150H404.635V135.72H402.935ZM418.675 150V135.82H417.375C417.281 136.353 417.108 136.793 416.855 137.14C416.601 137.487 416.288 137.76 415.915 137.96C415.555 138.16 415.148 138.3 414.695 138.38C414.241 138.447 413.775 138.48 413.295 138.48V139.84H416.975V150H418.675Z" fill="#1F252F"/>
<path d="M96.46 237.86V233.32H100.26C100.673 233.32 101.06 233.347 101.42 233.4C101.793 233.44 102.12 233.54 102.4 233.7C102.68 233.86 102.9 234.087 103.06 234.38C103.22 234.673 103.3 235.073 103.3 235.58C103.3 236.34 103.06 236.913 102.58 237.3C102.113 237.673 101.34 237.86 100.26 237.86H96.46ZM94.56 231.72V246H101.46C102.167 246 102.787 245.887 103.32 245.66C103.867 245.42 104.32 245.113 104.68 244.74C105.053 244.353 105.333 243.913 105.52 243.42C105.707 242.927 105.8 242.42 105.8 241.9C105.8 241.02 105.567 240.273 105.1 239.66C104.633 239.047 103.96 238.647 103.08 238.46V238.42C103.76 238.153 104.28 237.747 104.64 237.2C105.013 236.64 105.2 235.98 105.2 235.22C105.2 234.5 105.033 233.893 104.7 233.4C104.38 232.907 103.987 232.52 103.52 232.24C103.307 232.107 103.047 232.007 102.74 231.94C102.447 231.873 102.127 231.827 101.78 231.8C101.433 231.76 101.08 231.74 100.72 231.74C100.373 231.727 100.047 231.72 99.74 231.72H94.56ZM96.46 244.4V239.46H100.8C101.2 239.46 101.587 239.5 101.96 239.58C102.333 239.647 102.66 239.773 102.94 239.96C103.233 240.133 103.467 240.373 103.64 240.68C103.813 240.987 103.9 241.373 103.9 241.84C103.9 242.64 103.66 243.267 103.18 243.72C102.713 244.173 102.06 244.4 101.22 244.4H96.46ZM109.211 240.84C109.211 240.213 109.291 239.66 109.451 239.18C109.625 238.687 109.858 238.273 110.151 237.94C110.445 237.607 110.785 237.353 111.171 237.18C111.571 237.007 111.991 236.92 112.431 236.92C112.871 236.92 113.285 237.007 113.671 237.18C114.071 237.353 114.418 237.607 114.711 237.94C115.005 238.273 115.231 238.687 115.391 239.18C115.565 239.66 115.651 240.213 115.651 240.84C115.651 241.467 115.565 242.027 115.391 242.52C115.231 243 115.005 243.407 114.711 243.74C114.418 244.06 114.071 244.307 113.671 244.48C113.285 244.653 112.871 244.74 112.431 244.74C111.991 244.74 111.571 244.653 111.171 244.48C110.785 244.307 110.445 244.06 110.151 243.74C109.858 243.407 109.625 243 109.451 242.52C109.291 242.027 109.211 241.467 109.211 240.84ZM107.411 240.84C107.411 241.6 107.518 242.307 107.731 242.96C107.945 243.613 108.265 244.187 108.691 244.68C109.118 245.16 109.645 245.54 110.271 245.82C110.898 246.087 111.618 246.22 112.431 246.22C113.258 246.22 113.978 246.087 114.591 245.82C115.218 245.54 115.745 245.16 116.171 244.68C116.598 244.187 116.918 243.613 117.131 242.96C117.345 242.307 117.451 241.6 117.451 240.84C117.451 240.08 117.345 239.373 117.131 238.72C116.918 238.053 116.598 237.48 116.171 237C115.745 236.507 115.218 236.12 114.591 235.84C113.978 235.56 113.258 235.42 112.431 235.42C111.618 235.42 110.898 235.56 110.271 235.84C109.645 236.12 109.118 236.507 108.691 237C108.265 237.48 107.945 238.053 107.731 238.72C107.518 239.373 107.411 240.08 107.411 240.84ZM119.516 231.72V246H121.216V244.62H121.256C121.442 244.927 121.669 245.187 121.936 245.4C122.216 245.6 122.509 245.76 122.816 245.88C123.122 246 123.429 246.087 123.736 246.14C124.056 246.193 124.342 246.22 124.596 246.22C125.382 246.22 126.069 246.08 126.656 245.8C127.256 245.52 127.749 245.14 128.136 244.66C128.536 244.167 128.829 243.593 129.016 242.94C129.216 242.287 129.316 241.593 129.316 240.86C129.316 240.127 129.216 239.433 129.016 238.78C128.816 238.127 128.516 237.553 128.116 237.06C127.729 236.553 127.236 236.153 126.636 235.86C126.049 235.567 125.356 235.42 124.556 235.42C123.836 235.42 123.176 235.553 122.576 235.82C121.976 236.073 121.536 236.487 121.256 237.06H121.216V231.72H119.516ZM127.516 240.74C127.516 241.247 127.462 241.74 127.356 242.22C127.249 242.7 127.076 243.127 126.836 243.5C126.596 243.873 126.276 244.173 125.876 244.4C125.489 244.627 125.002 244.74 124.416 244.74C123.829 244.74 123.329 244.633 122.916 244.42C122.502 244.193 122.162 243.9 121.896 243.54C121.642 243.18 121.456 242.767 121.336 242.3C121.216 241.82 121.156 241.327 121.156 240.82C121.156 240.34 121.209 239.867 121.316 239.4C121.436 238.933 121.622 238.52 121.876 238.16C122.129 237.787 122.456 237.487 122.856 237.26C123.256 237.033 123.742 236.92 124.316 236.92C124.862 236.92 125.336 237.027 125.736 237.24C126.149 237.453 126.482 237.74 126.736 238.1C127.002 238.46 127.196 238.873 127.316 239.34C127.449 239.793 127.516 240.26 127.516 240.74ZM131.371 231.72V246H133.071V244.62H133.111C133.298 244.927 133.525 245.187 133.791 245.4C134.071 245.6 134.365 245.76 134.671 245.88C134.978 246 135.285 246.087 135.591 246.14C135.911 246.193 136.198 246.22 136.451 246.22C137.238 246.22 137.925 246.08 138.511 245.8C139.111 245.52 139.605 245.14 139.991 244.66C140.391 244.167 140.685 243.593 140.871 242.94C141.071 242.287 141.171 241.593 141.171 240.86C141.171 240.127 141.071 239.433 140.871 238.78C140.671 238.127 140.371 237.553 139.971 237.06C139.585 236.553 139.091 236.153 138.491 235.86C137.905 235.567 137.211 235.42 136.411 235.42C135.691 235.42 135.031 235.553 134.431 235.82C133.831 236.073 133.391 236.487 133.111 237.06H133.071V231.72H131.371ZM139.371 240.74C139.371 241.247 139.318 241.74 139.211 242.22C139.105 242.7 138.931 243.127 138.691 243.5C138.451 243.873 138.131 244.173 137.731 244.4C137.345 244.627 136.858 244.74 136.271 244.74C135.685 244.74 135.185 244.633 134.771 244.42C134.358 244.193 134.018 243.9 133.751 243.54C133.498 243.18 133.311 242.767 133.191 242.3C133.071 241.82 133.011 241.327 133.011 240.82C133.011 240.34 133.065 239.867 133.171 239.4C133.291 238.933 133.478 238.52 133.731 238.16C133.985 237.787 134.311 237.487 134.711 237.26C135.111 237.033 135.598 236.92 136.171 236.92C136.718 236.92 137.191 237.027 137.591 237.24C138.005 237.453 138.338 237.74 138.591 238.1C138.858 238.46 139.051 238.873 139.171 239.34C139.305 239.793 139.371 240.26 139.371 240.74ZM147.227 247.38C147.027 247.887 146.827 248.313 146.627 248.66C146.44 249.007 146.227 249.287 145.987 249.5C145.76 249.727 145.5 249.887 145.207 249.98C144.927 250.087 144.6 250.14 144.227 250.14C144.027 250.14 143.827 250.127 143.627 250.1C143.427 250.073 143.233 250.027 143.047 249.96V248.4C143.193 248.467 143.36 248.52 143.547 248.56C143.747 248.613 143.913 248.64 144.047 248.64C144.393 248.64 144.68 248.553 144.907 248.38C145.147 248.22 145.327 247.987 145.447 247.68L146.147 245.94L142.047 235.66H143.967L146.987 244.12H147.027L149.927 235.66H151.727L147.227 247.38ZM159.773 242.74H158.073C158.1 243.38 158.233 243.927 158.473 244.38C158.713 244.82 159.033 245.18 159.433 245.46C159.833 245.727 160.293 245.92 160.813 246.04C161.333 246.16 161.88 246.22 162.453 246.22C162.973 246.22 163.493 246.167 164.013 246.06C164.546 245.967 165.02 245.793 165.433 245.54C165.86 245.287 166.2 244.953 166.453 244.54C166.72 244.127 166.853 243.607 166.853 242.98C166.853 242.487 166.753 242.073 166.553 241.74C166.366 241.407 166.113 241.133 165.793 240.92C165.486 240.693 165.126 240.513 164.713 240.38C164.313 240.247 163.9 240.133 163.473 240.04C163.073 239.947 162.673 239.86 162.273 239.78C161.873 239.687 161.513 239.58 161.193 239.46C160.873 239.327 160.606 239.167 160.393 238.98C160.193 238.78 160.093 238.533 160.093 238.24C160.093 237.973 160.16 237.76 160.293 237.6C160.426 237.427 160.6 237.293 160.813 237.2C161.026 237.093 161.26 237.02 161.513 236.98C161.78 236.94 162.04 236.92 162.293 236.92C162.573 236.92 162.846 236.953 163.113 237.02C163.393 237.073 163.646 237.167 163.873 237.3C164.1 237.433 164.286 237.613 164.433 237.84C164.58 238.053 164.666 238.327 164.693 238.66H166.393C166.353 238.033 166.22 237.513 165.993 237.1C165.766 236.673 165.46 236.34 165.073 236.1C164.7 235.847 164.266 235.673 163.773 235.58C163.28 235.473 162.74 235.42 162.153 235.42C161.7 235.42 161.24 235.48 160.773 235.6C160.32 235.707 159.906 235.88 159.533 236.12C159.173 236.347 158.873 236.647 158.633 237.02C158.406 237.393 158.293 237.84 158.293 238.36C158.293 239.027 158.46 239.547 158.793 239.92C159.126 240.293 159.54 240.587 160.033 240.8C160.54 241 161.086 241.16 161.673 241.28C162.26 241.387 162.8 241.513 163.293 241.66C163.8 241.793 164.22 241.973 164.553 242.2C164.886 242.427 165.053 242.76 165.053 243.2C165.053 243.52 164.973 243.787 164.813 244C164.653 244.2 164.446 244.353 164.193 244.46C163.953 244.567 163.686 244.64 163.393 244.68C163.1 244.72 162.82 244.74 162.553 244.74C162.206 244.74 161.866 244.707 161.533 244.64C161.213 244.573 160.92 244.467 160.653 244.32C160.4 244.16 160.193 243.953 160.033 243.7C159.873 243.433 159.786 243.113 159.773 242.74ZM168.733 231.72V246H170.433V240.16C170.433 239.693 170.493 239.267 170.613 238.88C170.746 238.48 170.94 238.133 171.193 237.84C171.446 237.547 171.76 237.32 172.133 237.16C172.52 237 172.973 236.92 173.493 236.92C174.146 236.92 174.66 237.107 175.033 237.48C175.406 237.853 175.593 238.36 175.593 239V246H177.293V239.2C177.293 238.64 177.233 238.133 177.113 237.68C177.006 237.213 176.813 236.813 176.533 236.48C176.253 236.147 175.886 235.887 175.433 235.7C174.98 235.513 174.413 235.42 173.733 235.42C173.426 235.42 173.106 235.453 172.773 235.52C172.453 235.587 172.14 235.693 171.833 235.84C171.54 235.973 171.273 236.153 171.033 236.38C170.793 236.593 170.606 236.86 170.473 237.18H170.433V231.72H168.733ZM181.086 240.84C181.086 240.213 181.166 239.66 181.326 239.18C181.5 238.687 181.733 238.273 182.026 237.94C182.32 237.607 182.66 237.353 183.046 237.18C183.446 237.007 183.866 236.92 184.306 236.92C184.746 236.92 185.16 237.007 185.546 237.18C185.946 237.353 186.293 237.607 186.586 237.94C186.88 238.273 187.106 238.687 187.266 239.18C187.44 239.66 187.526 240.213 187.526 240.84C187.526 241.467 187.44 242.027 187.266 242.52C187.106 243 186.88 243.407 186.586 243.74C186.293 244.06 185.946 244.307 185.546 244.48C185.16 244.653 184.746 244.74 184.306 244.74C183.866 244.74 183.446 244.653 183.046 244.48C182.66 244.307 182.32 244.06 182.026 243.74C181.733 243.407 181.5 243 181.326 242.52C181.166 242.027 181.086 241.467 181.086 240.84ZM179.286 240.84C179.286 241.6 179.393 242.307 179.606 242.96C179.82 243.613 180.14 244.187 180.566 244.68C180.993 245.16 181.52 245.54 182.146 245.82C182.773 246.087 183.493 246.22 184.306 246.22C185.133 246.22 185.853 246.087 186.466 245.82C187.093 245.54 187.62 245.16 188.046 244.68C188.473 244.187 188.793 243.613 189.006 242.96C189.22 242.307 189.326 241.6 189.326 240.84C189.326 240.08 189.22 239.373 189.006 238.72C188.793 238.053 188.473 237.48 188.046 237C187.62 236.507 187.093 236.12 186.466 235.84C185.853 235.56 185.133 235.42 184.306 235.42C183.493 235.42 182.773 235.56 182.146 235.84C181.52 236.12 180.993 236.507 180.566 237C180.14 237.48 179.82 238.053 179.606 238.72C179.393 239.373 179.286 240.08 179.286 240.84ZM199.891 246V235.66H198.191V241.5C198.191 241.967 198.124 242.4 197.991 242.8C197.871 243.187 197.684 243.527 197.431 243.82C197.177 244.113 196.857 244.34 196.471 244.5C196.097 244.66 195.651 244.74 195.131 244.74C194.477 244.74 193.964 244.553 193.591 244.18C193.217 243.807 193.031 243.3 193.031 242.66V235.66H191.331V242.46C191.331 243.02 191.384 243.533 191.491 244C191.611 244.453 191.811 244.847 192.091 245.18C192.371 245.513 192.737 245.773 193.191 245.96C193.644 246.133 194.211 246.22 194.891 246.22C195.651 246.22 196.311 246.073 196.871 245.78C197.431 245.473 197.891 245 198.251 244.36H198.291V246H199.891ZM202.544 231.72V246H204.244V231.72H202.544ZM208.118 240.92C208.118 240.413 208.171 239.92 208.278 239.44C208.384 238.96 208.558 238.533 208.798 238.16C209.038 237.787 209.358 237.487 209.758 237.26C210.158 237.033 210.644 236.92 211.218 236.92C211.804 236.92 212.304 237.033 212.718 237.26C213.131 237.473 213.464 237.76 213.718 238.12C213.984 238.48 214.178 238.9 214.298 239.38C214.418 239.847 214.478 240.333 214.478 240.84C214.478 241.32 214.418 241.793 214.298 242.26C214.191 242.727 214.011 243.147 213.758 243.52C213.504 243.88 213.178 244.173 212.778 244.4C212.378 244.627 211.891 244.74 211.318 244.74C210.771 244.74 210.291 244.633 209.878 244.42C209.478 244.207 209.144 243.92 208.878 243.56C208.624 243.2 208.431 242.793 208.298 242.34C208.178 241.873 208.118 241.4 208.118 240.92ZM216.118 246V231.72H214.418V237.04H214.378C214.191 236.733 213.958 236.48 213.678 236.28C213.411 236.067 213.124 235.9 212.818 235.78C212.511 235.647 212.204 235.553 211.898 235.5C211.591 235.447 211.304 235.42 211.038 235.42C210.251 235.42 209.558 235.567 208.958 235.86C208.371 236.14 207.878 236.527 207.478 237.02C207.091 237.5 206.798 238.067 206.598 238.72C206.411 239.373 206.318 240.067 206.318 240.8C206.318 241.533 206.418 242.227 206.618 242.88C206.818 243.533 207.111 244.107 207.498 244.6C207.898 245.093 208.391 245.487 208.978 245.78C209.578 246.073 210.278 246.22 211.078 246.22C211.798 246.22 212.458 246.093 213.058 245.84C213.658 245.587 214.098 245.173 214.378 244.6H214.418V246H216.118ZM226.1 233.8V231.72H224.4V233.8H226.1ZM224.4 235.66V246H226.1V235.66H224.4ZM229.773 242.74H228.073C228.1 243.38 228.233 243.927 228.473 244.38C228.713 244.82 229.033 245.18 229.433 245.46C229.833 245.727 230.293 245.92 230.813 246.04C231.333 246.16 231.88 246.22 232.453 246.22C232.973 246.22 233.493 246.167 234.013 246.06C234.546 245.967 235.02 245.793 235.433 245.54C235.86 245.287 236.2 244.953 236.453 244.54C236.72 244.127 236.853 243.607 236.853 242.98C236.853 242.487 236.753 242.073 236.553 241.74C236.366 241.407 236.113 241.133 235.793 240.92C235.486 240.693 235.126 240.513 234.713 240.38C234.313 240.247 233.9 240.133 233.473 240.04C233.073 239.947 232.673 239.86 232.273 239.78C231.873 239.687 231.513 239.58 231.193 239.46C230.873 239.327 230.606 239.167 230.393 238.98C230.193 238.78 230.093 238.533 230.093 238.24C230.093 237.973 230.16 237.76 230.293 237.6C230.426 237.427 230.6 237.293 230.813 237.2C231.026 237.093 231.26 237.02 231.513 236.98C231.78 236.94 232.04 236.92 232.293 236.92C232.573 236.92 232.846 236.953 233.113 237.02C233.393 237.073 233.646 237.167 233.873 237.3C234.1 237.433 234.286 237.613 234.433 237.84C234.58 238.053 234.666 238.327 234.693 238.66H236.393C236.353 238.033 236.22 237.513 235.993 237.1C235.766 236.673 235.46 236.34 235.073 236.1C234.7 235.847 234.266 235.673 233.773 235.58C233.28 235.473 232.74 235.42 232.153 235.42C231.7 235.42 231.24 235.48 230.773 235.6C230.32 235.707 229.906 235.88 229.533 236.12C229.173 236.347 228.873 236.647 228.633 237.02C228.406 237.393 228.293 237.84 228.293 238.36C228.293 239.027 228.46 239.547 228.793 239.92C229.126 240.293 229.54 240.587 230.033 240.8C230.54 241 231.086 241.16 231.673 241.28C232.26 241.387 232.8 241.513 233.293 241.66C233.8 241.793 234.22 241.973 234.553 242.2C234.886 242.427 235.053 242.76 235.053 243.2C235.053 243.52 234.973 243.787 234.813 244C234.653 244.2 234.446 244.353 234.193 244.46C233.953 244.567 233.686 244.64 233.393 244.68C233.1 244.72 232.82 244.74 232.553 244.74C232.206 244.74 231.866 244.707 231.533 244.64C231.213 244.573 230.92 244.467 230.653 244.32C230.4 244.16 230.193 243.953 230.033 243.7C229.873 243.433 229.786 243.113 229.773 242.74ZM239.973 240.84C239.973 240.213 240.053 239.66 240.213 239.18C240.386 238.687 240.62 238.273 240.913 237.94C241.206 237.607 241.546 237.353 241.933 237.18C242.333 237.007 242.753 236.92 243.193 236.92C243.633 236.92 244.046 237.007 244.433 237.18C244.833 237.353 245.18 237.607 245.473 237.94C245.766 238.273 245.993 238.687 246.153 239.18C246.326 239.66 246.413 240.213 246.413 240.84C246.413 241.467 246.326 242.027 246.153 242.52C245.993 243 245.766 243.407 245.473 243.74C245.18 244.06 244.833 244.307 244.433 244.48C244.046 244.653 243.633 244.74 243.193 244.74C242.753 244.74 242.333 244.653 241.933 244.48C241.546 244.307 241.206 244.06 240.913 243.74C240.62 243.407 240.386 243 240.213 242.52C240.053 242.027 239.973 241.467 239.973 240.84ZM238.173 240.84C238.173 241.6 238.28 242.307 238.493 242.96C238.706 243.613 239.026 244.187 239.453 244.68C239.88 245.16 240.406 245.54 241.033 245.82C241.66 246.087 242.38 246.22 243.193 246.22C244.02 246.22 244.74 246.087 245.353 245.82C245.98 245.54 246.506 245.16 246.933 244.68C247.36 244.187 247.68 243.613 247.893 242.96C248.106 242.307 248.213 241.6 248.213 240.84C248.213 240.08 248.106 239.373 247.893 238.72C247.68 238.053 247.36 237.48 246.933 237C246.506 236.507 245.98 236.12 245.353 235.84C244.74 235.56 244.02 235.42 243.193 235.42C242.38 235.42 241.66 235.56 241.033 235.84C240.406 236.12 239.88 236.507 239.453 237C239.026 237.48 238.706 238.053 238.493 238.72C238.28 239.373 238.173 240.08 238.173 240.84ZM250.318 231.72V246H252.018V231.72H250.318ZM263.811 245.96C263.518 246.133 263.111 246.22 262.591 246.22C262.151 246.22 261.798 246.1 261.531 245.86C261.278 245.607 261.151 245.2 261.151 244.64C260.684 245.2 260.138 245.607 259.511 245.86C258.898 246.1 258.231 246.22 257.511 246.22C257.044 246.22 256.598 246.167 256.171 246.06C255.758 245.953 255.398 245.787 255.091 245.56C254.784 245.333 254.538 245.04 254.351 244.68C254.178 244.307 254.091 243.86 254.091 243.34C254.091 242.753 254.191 242.273 254.391 241.9C254.591 241.527 254.851 241.227 255.171 241C255.504 240.76 255.878 240.58 256.291 240.46C256.718 240.34 257.151 240.24 257.591 240.16C258.058 240.067 258.498 240 258.911 239.96C259.338 239.907 259.711 239.84 260.031 239.76C260.351 239.667 260.604 239.54 260.791 239.38C260.978 239.207 261.071 238.96 261.071 238.64C261.071 238.267 260.998 237.967 260.851 237.74C260.718 237.513 260.538 237.34 260.311 237.22C260.098 237.1 259.851 237.02 259.571 236.98C259.304 236.94 259.038 236.92 258.771 236.92C258.051 236.92 257.451 237.06 256.971 237.34C256.491 237.607 256.231 238.12 256.191 238.88H254.491C254.518 238.24 254.651 237.7 254.891 237.26C255.131 236.82 255.451 236.467 255.851 236.2C256.251 235.92 256.704 235.72 257.211 235.6C257.731 235.48 258.284 235.42 258.871 235.42C259.338 235.42 259.798 235.453 260.251 235.52C260.718 235.587 261.138 235.727 261.511 235.94C261.884 236.14 262.184 236.427 262.411 236.8C262.638 237.173 262.751 237.66 262.751 238.26V243.58C262.751 243.98 262.771 244.273 262.811 244.46C262.864 244.647 263.024 244.74 263.291 244.74C263.438 244.74 263.611 244.707 263.811 244.64V245.96ZM261.051 240.66C260.838 240.82 260.558 240.94 260.211 241.02C259.864 241.087 259.498 241.147 259.111 241.2C258.738 241.24 258.358 241.293 257.971 241.36C257.584 241.413 257.238 241.507 256.931 241.64C256.624 241.773 256.371 241.967 256.171 242.22C255.984 242.46 255.891 242.793 255.891 243.22C255.891 243.5 255.944 243.74 256.051 243.94C256.171 244.127 256.318 244.28 256.491 244.4C256.678 244.52 256.891 244.607 257.131 244.66C257.371 244.713 257.624 244.74 257.891 244.74C258.451 244.74 258.931 244.667 259.331 244.52C259.731 244.36 260.058 244.167 260.311 243.94C260.564 243.7 260.751 243.447 260.871 243.18C260.991 242.9 261.051 242.64 261.051 242.4V240.66ZM267.753 235.66V232.56H266.053V235.66H264.293V237.16H266.053V243.74C266.053 244.22 266.1 244.607 266.193 244.9C266.287 245.193 266.427 245.42 266.613 245.58C266.813 245.74 267.067 245.853 267.373 245.92C267.693 245.973 268.073 246 268.513 246H269.813V244.5H269.033C268.767 244.5 268.547 244.493 268.373 244.48C268.213 244.453 268.087 244.407 267.993 244.34C267.9 244.273 267.833 244.18 267.793 244.06C267.767 243.94 267.753 243.78 267.753 243.58V237.16H269.813V235.66H267.753ZM278.882 239.84H272.942C272.969 239.44 273.055 239.067 273.202 238.72C273.349 238.36 273.549 238.047 273.802 237.78C274.055 237.513 274.355 237.307 274.702 237.16C275.062 237 275.462 236.92 275.902 236.92C276.329 236.92 276.715 237 277.062 237.16C277.422 237.307 277.729 237.513 277.982 237.78C278.249 238.033 278.455 238.34 278.602 238.7C278.762 239.06 278.855 239.44 278.882 239.84ZM280.522 242.72H278.842C278.695 243.4 278.389 243.907 277.922 244.24C277.469 244.573 276.882 244.74 276.162 244.74C275.602 244.74 275.115 244.647 274.702 244.46C274.289 244.273 273.949 244.027 273.682 243.72C273.415 243.4 273.222 243.04 273.102 242.64C272.982 242.227 272.929 241.793 272.942 241.34H280.682C280.709 240.713 280.649 240.053 280.502 239.36C280.369 238.667 280.115 238.027 279.742 237.44C279.382 236.853 278.895 236.373 278.282 236C277.682 235.613 276.922 235.42 276.002 235.42C275.295 235.42 274.642 235.553 274.042 235.82C273.455 236.087 272.942 236.46 272.502 236.94C272.075 237.42 271.742 237.987 271.502 238.64C271.262 239.293 271.142 240.013 271.142 240.8C271.169 241.587 271.282 242.313 271.482 242.98C271.695 243.647 272.009 244.22 272.422 244.7C272.835 245.18 273.342 245.553 273.942 245.82C274.555 246.087 275.275 246.22 276.102 246.22C277.275 246.22 278.249 245.927 279.022 245.34C279.795 244.753 280.295 243.88 280.522 242.72ZM296.57 246V235.66H294.87V241.5C294.87 241.967 294.804 242.4 294.67 242.8C294.55 243.187 294.364 243.527 294.11 243.82C293.857 244.113 293.537 244.34 293.15 244.5C292.777 244.66 292.33 244.74 291.81 244.74C291.157 244.74 290.644 244.553 290.27 244.18C289.897 243.807 289.71 243.3 289.71 242.66V235.66H288.01V242.46C288.01 243.02 288.064 243.533 288.17 244C288.29 244.453 288.49 244.847 288.77 245.18C289.05 245.513 289.417 245.773 289.87 245.96C290.324 246.133 290.89 246.22 291.57 246.22C292.33 246.22 292.99 246.073 293.55 245.78C294.11 245.473 294.57 245 294.93 244.36H294.97V246H296.57ZM299.124 235.66V246H300.824V240.16C300.824 239.693 300.884 239.267 301.004 238.88C301.137 238.48 301.33 238.133 301.584 237.84C301.837 237.547 302.15 237.32 302.524 237.16C302.91 237 303.364 236.92 303.884 236.92C304.537 236.92 305.05 237.107 305.424 237.48C305.797 237.853 305.984 238.36 305.984 239V246H307.684V239.2C307.684 238.64 307.624 238.133 307.504 237.68C307.397 237.213 307.204 236.813 306.924 236.48C306.644 236.147 306.277 235.887 305.824 235.7C305.37 235.513 304.804 235.42 304.124 235.42C302.59 235.42 301.47 236.047 300.764 237.3H300.724V235.66H299.124ZM312.597 235.66V232.56H310.897V235.66H309.137V237.16H310.897V243.74C310.897 244.22 310.944 244.607 311.037 244.9C311.13 245.193 311.27 245.42 311.457 245.58C311.657 245.74 311.91 245.853 312.217 245.92C312.537 245.973 312.917 246 313.357 246H314.657V244.5H313.877C313.61 244.5 313.39 244.493 313.217 244.48C313.057 244.453 312.93 244.407 312.837 244.34C312.744 244.273 312.677 244.18 312.637 244.06C312.61 243.94 312.597 243.78 312.597 243.58V237.16H314.657V235.66H312.597ZM318.346 233.8V231.72H316.646V233.8H318.346ZM316.646 235.66V246H318.346V235.66H316.646ZM321.079 231.72V246H322.779V231.72H321.079ZM333.719 240.1L336.139 233.44H336.179L338.559 240.1H333.719ZM335.139 231.72L329.579 246H331.519L333.119 241.7H339.159L340.719 246H342.819L337.239 231.72H335.139ZM344.008 235.66V249.94H345.708V244.62H345.748C345.935 244.927 346.161 245.187 346.428 245.4C346.708 245.6 347.001 245.76 347.308 245.88C347.615 246 347.921 246.087 348.228 246.14C348.548 246.193 348.835 246.22 349.088 246.22C349.875 246.22 350.561 246.08 351.148 245.8C351.748 245.52 352.241 245.14 352.628 244.66C353.028 244.167 353.321 243.593 353.508 242.94C353.708 242.287 353.808 241.593 353.808 240.86C353.808 240.127 353.708 239.433 353.508 238.78C353.308 238.127 353.008 237.553 352.608 237.06C352.221 236.553 351.728 236.153 351.128 235.86C350.541 235.567 349.848 235.42 349.048 235.42C348.328 235.42 347.668 235.553 347.068 235.82C346.468 236.073 346.028 236.487 345.748 237.06H345.708V235.66H344.008ZM352.008 240.74C352.008 241.247 351.955 241.74 351.848 242.22C351.741 242.7 351.568 243.127 351.328 243.5C351.088 243.873 350.768 244.173 350.368 244.4C349.981 244.627 349.495 244.74 348.908 244.74C348.321 244.74 347.821 244.633 347.408 244.42C346.995 244.193 346.655 243.9 346.388 243.54C346.135 243.18 345.948 242.767 345.828 242.3C345.708 241.82 345.648 241.327 345.648 240.82C345.648 240.34 345.701 239.867 345.808 239.4C345.928 238.933 346.115 238.52 346.368 238.16C346.621 237.787 346.948 237.487 347.348 237.26C347.748 237.033 348.235 236.92 348.808 236.92C349.355 236.92 349.828 237.027 350.228 237.24C350.641 237.453 350.975 237.74 351.228 238.1C351.495 238.46 351.688 238.873 351.808 239.34C351.941 239.793 352.008 240.26 352.008 240.74ZM355.743 235.66V246H357.443V241.4C357.443 240.733 357.51 240.147 357.643 239.64C357.777 239.12 357.99 238.68 358.283 238.32C358.577 237.96 358.963 237.687 359.443 237.5C359.923 237.313 360.503 237.22 361.183 237.22V235.42C360.263 235.393 359.503 235.58 358.903 235.98C358.303 236.38 357.797 237 357.383 237.84H357.343V235.66H355.743ZM364.264 233.8V231.72H362.564V233.8H364.264ZM362.564 235.66V246H364.264V235.66H362.564ZM366.997 231.72V246H368.697V231.72H366.997ZM376.497 236.84H378.197C378.184 236.413 378.224 235.993 378.317 235.58C378.424 235.153 378.591 234.773 378.817 234.44C379.044 234.107 379.331 233.84 379.677 233.64C380.037 233.427 380.464 233.32 380.957 233.32C381.331 233.32 381.684 233.38 382.017 233.5C382.351 233.62 382.637 233.793 382.877 234.02C383.131 234.247 383.331 234.52 383.477 234.84C383.624 235.147 383.697 235.493 383.697 235.88C383.697 236.373 383.617 236.807 383.457 237.18C383.311 237.553 383.084 237.9 382.777 238.22C382.484 238.54 382.111 238.86 381.657 239.18C381.204 239.487 380.677 239.827 380.077 240.2C379.584 240.493 379.111 240.807 378.657 241.14C378.204 241.473 377.797 241.86 377.437 242.3C377.077 242.74 376.777 243.26 376.537 243.86C376.311 244.447 376.164 245.16 376.097 246H385.357V244.5H378.077C378.157 244.06 378.324 243.673 378.577 243.34C378.844 242.993 379.157 242.673 379.517 242.38C379.891 242.087 380.297 241.813 380.737 241.56C381.177 241.293 381.617 241.027 382.057 240.76C382.497 240.48 382.924 240.187 383.337 239.88C383.751 239.573 384.117 239.233 384.437 238.86C384.757 238.473 385.011 238.04 385.197 237.56C385.397 237.08 385.497 236.527 385.497 235.9C385.497 235.233 385.377 234.647 385.137 234.14C384.911 233.633 384.597 233.213 384.197 232.88C383.797 232.533 383.324 232.273 382.777 232.1C382.244 231.913 381.671 231.82 381.057 231.82C380.311 231.82 379.644 231.947 379.057 232.2C378.471 232.453 377.977 232.807 377.577 233.26C377.191 233.7 376.904 234.227 376.717 234.84C376.531 235.453 376.457 236.12 376.497 236.84ZM391.09 237.9V239.34C391.41 239.3 391.75 239.28 392.11 239.28C392.537 239.28 392.93 239.34 393.29 239.46C393.664 239.567 393.984 239.74 394.25 239.98C394.517 240.207 394.73 240.493 394.89 240.84C395.05 241.173 395.13 241.56 395.13 242C395.13 242.427 395.044 242.813 394.87 243.16C394.71 243.493 394.49 243.78 394.21 244.02C393.93 244.247 393.604 244.427 393.23 244.56C392.857 244.68 392.464 244.74 392.05 244.74C391.077 244.74 390.337 244.453 389.83 243.88C389.324 243.293 389.057 242.54 389.03 241.62H387.33C387.317 242.353 387.417 243.007 387.63 243.58C387.857 244.153 388.177 244.64 388.59 245.04C389.004 245.427 389.504 245.72 390.09 245.92C390.677 246.12 391.33 246.22 392.05 246.22C392.717 246.22 393.344 246.133 393.93 245.96C394.53 245.773 395.05 245.5 395.49 245.14C395.93 244.78 396.277 244.333 396.53 243.8C396.797 243.253 396.93 242.627 396.93 241.92C396.93 241.067 396.717 240.327 396.29 239.7C395.877 239.073 395.237 238.667 394.37 238.48V238.44C394.93 238.187 395.397 237.813 395.77 237.32C396.144 236.827 396.33 236.26 396.33 235.62C396.33 234.967 396.217 234.4 395.99 233.92C395.777 233.44 395.477 233.047 395.09 232.74C394.704 232.433 394.244 232.207 393.71 232.06C393.19 231.9 392.624 231.82 392.01 231.82C391.304 231.82 390.677 231.933 390.13 232.16C389.597 232.387 389.15 232.7 388.79 233.1C388.43 233.5 388.15 233.98 387.95 234.54C387.764 235.1 387.657 235.72 387.63 236.4H389.33C389.33 235.987 389.384 235.593 389.49 235.22C389.597 234.847 389.757 234.52 389.97 234.24C390.197 233.96 390.477 233.74 390.81 233.58C391.157 233.407 391.557 233.32 392.01 233.32C392.73 233.32 393.33 233.513 393.81 233.9C394.29 234.273 394.53 234.84 394.53 235.6C394.53 235.973 394.457 236.307 394.31 236.6C394.164 236.893 393.964 237.14 393.71 237.34C393.47 237.527 393.184 237.673 392.85 237.78C392.53 237.873 392.19 237.92 391.83 237.92H391.47C391.404 237.92 391.337 237.92 391.27 237.92C391.217 237.92 391.157 237.913 391.09 237.9Z" fill="#1F252F"/>
<path d="M637 140L643 146L649 140" stroke="#1F252F" stroke-width="2"/>
<path d="M637 236L643 242L649 236" stroke="#1F252F" stroke-width="2"/>
</g>
<defs>
<filter id="filter0_d" x="0" y="0" width="750" height="390" filterUnits="userSpaceOnUse" color-interpolation-filters="sRGB">
<feFlood flood-opacity="0" result="BackgroundImageFix"/>
<feColorMatrix in="SourceAlpha" type="matrix" values="0 0 0 0 0 0 0 0 0 0 0 0 0 0 0 0 0 0 127 0"/>
<feOffset dy="4"/>
<feGaussianBlur stdDeviation="10"/>
<feColorMatrix type="matrix" values="0 0 0 0 0 0 0 0 0 0 0 0 0 0 0 0 0 0 0.07 0"/>
<feBlend mode="normal" in2="BackgroundImageFix" result="effect1_dropShadow"/>
<feBlend mode="normal" in="SourceGraphic" in2="effect1_dropShadow" result="shape"/>
</filter>
</defs>
</svg>
